<svg width="150" height="40" viewBox="0 0 150 40" fill="none" xmlns="http://www.w3.org/2000/svg">
<g clip-path="url(#clip0_339_663)">
<path d="M63.3781 21V1.4H71.8341C73.0661 1.4 74.1581 1.68 75.1101 2.24C76.0807 2.8 76.8461 3.56533 77.4061 4.536C77.9847 5.50667 78.2741 6.59867 78.2741 7.812C78.2741 9.08133 77.9847 10.22 77.4061 11.228C76.8461 12.2173 76.0807 13.0013 75.1101 13.58C74.1581 14.1587 73.0661 14.448 71.8341 14.448H68.1381V21H63.3781ZM68.0541 10.276H71.1621C71.5727 10.276 71.9461 10.1733 72.2821 9.968C72.6181 9.76267 72.8887 9.48267 73.0941 9.128C73.2994 8.77333 73.4021 8.36267 73.4021 7.896C73.4021 7.41067 73.2994 7 73.0941 6.664C72.8887 6.328 72.6181 6.06667 72.2821 5.88C71.9461 5.69333 71.5727 5.6 71.1621 5.6H68.0541V10.276ZM77.5931 21L85.3491 1.4H89.3811L97.0811 21H92.2651L88.5691 11.06C88.4198 10.668 88.2704 10.248 88.1211 9.8C87.9718 9.352 87.8224 8.89467 87.6731 8.428C87.5238 7.94267 87.3744 7.476 87.2251 7.028C87.0944 6.56133 86.9824 6.132 86.8891 5.74L87.7291 5.712C87.6171 6.17867 87.4864 6.636 87.3371 7.084C87.2064 7.532 87.0664 7.98 86.9171 8.428C86.7864 8.85733 86.6371 9.296 86.4691 9.744C86.3011 10.1733 86.1424 10.6213 85.9931 11.088L82.2971 21H77.5931ZM81.2891 17.248L82.7731 13.664H91.7891L93.2451 17.248H81.2891ZM99.5265 21V1.4H108.347C109.597 1.4 110.727 1.67067 111.735 2.212C112.761 2.75333 113.564 3.5 114.143 4.452C114.721 5.38533 115.011 6.44933 115.011 7.644C115.011 8.876 114.721 9.98667 114.143 10.976C113.564 11.9467 112.771 12.712 111.763 13.272C110.755 13.832 109.616 14.112 108.347 14.112H104.062V21H99.5265ZM110.391 21L105.407 12.152L110.279 11.452L115.823 21H110.391ZM104.062 10.472H107.927C108.412 10.472 108.832 10.3693 109.187 10.164C109.56 9.94 109.84 9.632 110.027 9.24C110.232 8.848 110.335 8.4 110.335 7.896C110.335 7.392 110.223 6.95333 109.999 6.58C109.775 6.188 109.448 5.88933 109.019 5.684C108.608 5.47867 108.104 5.376 107.507 5.376H104.062V10.472ZM118.795 21V16.996H122.099V5.404H118.795V1.4H130.191V5.404H126.859V16.996H130.191V21H118.795ZM141.214 21.28C139.926 21.28 138.759 21.1307 137.714 20.832C136.687 20.5147 135.773 20.0667 134.97 19.488C134.167 18.8907 133.449 18.1907 132.814 17.388L135.698 14.112C136.631 15.3627 137.565 16.2027 138.498 16.632C139.45 17.0613 140.43 17.276 141.438 17.276C141.942 17.276 142.399 17.2107 142.81 17.08C143.221 16.9493 143.538 16.7627 143.762 16.52C143.986 16.2587 144.098 15.9413 144.098 15.568C144.098 15.288 144.023 15.036 143.874 14.812C143.743 14.588 143.557 14.392 143.314 14.224C143.071 14.056 142.782 13.9067 142.446 13.776C142.11 13.6267 141.755 13.5053 141.382 13.412C141.009 13.3 140.626 13.2067 140.234 13.132C139.151 12.8893 138.209 12.5907 137.406 12.236C136.603 11.8813 135.931 11.452 135.39 10.948C134.867 10.4253 134.475 9.83733 134.214 9.184C133.953 8.512 133.822 7.76533 133.822 6.944C133.822 6.06667 134.018 5.264 134.41 4.536C134.821 3.78933 135.362 3.15467 136.034 2.632C136.725 2.09067 137.518 1.68 138.414 1.4C139.31 1.10133 140.243 0.951999 141.214 0.951999C142.502 0.951999 143.603 1.092 144.518 1.372C145.451 1.63333 146.245 2.016 146.898 2.52C147.57 3.024 148.139 3.63067 148.606 4.34L145.666 7.168C145.274 6.68267 144.845 6.28133 144.378 5.964C143.93 5.64667 143.445 5.404 142.922 5.236C142.418 5.068 141.895 4.984 141.354 4.984C140.794 4.984 140.309 5.05867 139.898 5.208C139.506 5.33867 139.198 5.53467 138.974 5.796C138.75 6.03867 138.638 6.33733 138.638 6.692C138.638 7.00933 138.731 7.28 138.918 7.504C139.105 7.728 139.357 7.93333 139.674 8.12C139.991 8.288 140.355 8.43733 140.766 8.568C141.177 8.68 141.606 8.77333 142.054 8.848C143.081 9.05333 144.005 9.324 144.826 9.66C145.666 9.996 146.385 10.4067 146.982 10.892C147.598 11.3773 148.065 11.956 148.382 12.628C148.718 13.2813 148.886 14.0467 148.886 14.924C148.886 16.2867 148.55 17.444 147.878 18.396C147.225 19.3293 146.319 20.048 145.162 20.552C144.023 21.0373 142.707 21.28 141.214 21.28Z" fill="#1D307B"/>
<path d="M66.6607 39V27.676H62.9367V25.7H72.5507V27.676H68.7127V39H66.6607ZM75.5369 39V37.1H77.6839V27.6H75.5369V25.7H81.8829V27.6H79.7359V37.1H81.8829V39H75.5369ZM91.1719 39.19C90.2472 39.19 89.3985 39.0253 88.6259 38.696C87.8532 38.3667 87.1819 37.898 86.6119 37.29C86.0419 36.6693 85.5985 35.941 85.2819 35.105C84.9779 34.269 84.8259 33.3507 84.8259 32.35C84.8259 31.4 84.9905 30.5197 85.3199 29.709C85.6619 28.8857 86.1305 28.1637 86.7259 27.543C87.3212 26.9223 88.0115 26.441 88.7969 26.099C89.5822 25.757 90.4309 25.586 91.3429 25.586C91.9889 25.586 92.6159 25.6873 93.2239 25.89C93.8445 26.08 94.4019 26.3523 94.8959 26.707C95.4025 27.049 95.8142 27.4417 96.1309 27.885L94.7629 29.31C94.3955 28.9427 94.0219 28.6387 93.6419 28.398C93.2745 28.1447 92.8945 27.9547 92.5019 27.828C92.1219 27.7013 91.7355 27.638 91.3429 27.638C90.7222 27.638 90.1395 27.7583 89.5949 27.999C89.0629 28.227 88.5942 28.55 88.1889 28.968C87.7962 29.386 87.4859 29.8863 87.2579 30.469C87.0299 31.039 86.9159 31.666 86.9159 32.35C86.9159 33.072 87.0235 33.7307 87.2389 34.326C87.4669 34.9087 87.7835 35.409 88.1889 35.827C88.5942 36.245 89.0755 36.568 89.6329 36.796C90.2029 37.0113 90.8299 37.119 91.5139 37.119C91.9319 37.119 92.3435 37.062 92.7489 36.948C93.1542 36.834 93.5342 36.6693 93.8889 36.454C94.2435 36.2387 94.5665 35.9853 94.8579 35.694L95.8839 37.366C95.5925 37.708 95.1935 38.0183 94.6869 38.297C94.1929 38.5757 93.6355 38.7973 93.0149 38.962C92.4069 39.114 91.7925 39.19 91.1719 39.19ZM101.331 34.972L101.217 32.673L108.19 25.7H110.888L101.331 34.972ZM99.6214 39V25.7H101.673V39H99.6214ZM108.437 39L103.345 32.198L104.865 30.887L111.002 39H108.437ZM114.487 39V25.7H122.866V27.676H116.539V37.024H122.866V39H114.487ZM115.418 33.167V31.191H121.821V33.167H115.418ZM129.635 39V27.676H125.911V25.7H135.525V27.676H131.687V39H129.635ZM143.11 39.19C142.388 39.19 141.716 39.095 141.096 38.905C140.488 38.715 139.93 38.43 139.424 38.05C138.93 37.6573 138.486 37.176 138.094 36.606L139.5 34.991C140.12 35.8777 140.716 36.492 141.286 36.834C141.856 37.176 142.533 37.347 143.319 37.347C143.8 37.347 144.237 37.271 144.63 37.119C145.022 36.967 145.333 36.758 145.561 36.492C145.789 36.226 145.903 35.922 145.903 35.58C145.903 35.352 145.865 35.1367 145.789 34.934C145.713 34.7313 145.592 34.5477 145.428 34.383C145.276 34.2183 145.073 34.0663 144.82 33.927C144.579 33.7877 144.294 33.6673 143.965 33.566C143.635 33.452 143.255 33.357 142.825 33.281C142.141 33.1417 141.545 32.958 141.039 32.73C140.532 32.502 140.108 32.217 139.766 31.875C139.424 31.533 139.17 31.1467 139.006 30.716C138.841 30.2727 138.759 29.7787 138.759 29.234C138.759 28.702 138.873 28.208 139.101 27.752C139.341 27.296 139.664 26.9033 140.07 26.574C140.488 26.232 140.975 25.9723 141.533 25.795C142.09 25.605 142.692 25.51 143.338 25.51C144.022 25.51 144.649 25.5987 145.219 25.776C145.789 25.9533 146.295 26.2193 146.739 26.574C147.182 26.916 147.549 27.3403 147.841 27.847L146.397 29.272C146.143 28.854 145.858 28.5057 145.542 28.227C145.225 27.9357 144.877 27.7203 144.497 27.581C144.117 27.429 143.711 27.353 143.281 27.353C142.787 27.353 142.356 27.429 141.989 27.581C141.621 27.733 141.33 27.9483 141.115 28.227C140.912 28.493 140.811 28.8097 140.811 29.177C140.811 29.443 140.861 29.69 140.963 29.918C141.064 30.1333 141.216 30.3297 141.419 30.507C141.634 30.6717 141.919 30.8237 142.274 30.963C142.628 31.0897 143.053 31.2037 143.547 31.305C144.243 31.457 144.864 31.6533 145.409 31.894C145.953 32.122 146.416 32.3943 146.796 32.711C147.176 33.0277 147.461 33.3823 147.651 33.775C147.853 34.1677 147.955 34.592 147.955 35.048C147.955 35.8967 147.758 36.6313 147.366 37.252C146.973 37.8727 146.416 38.354 145.694 38.696C144.972 39.0253 144.11 39.19 143.11 39.19Z" fill="black"/>
<path fill-rule="evenodd" clip-rule="evenodd" d="M4 0C1.79086 0 0 1.79086 0 4V36C0 38.2091 1.79086 40 4 40H50C52.2091 40 54 38.2091 54 36V4C54 1.79086 52.2091 0 50 0H4ZM33.4675 10.4084C33.4675 15.1851 32.8371 20.074 32.5176 21.9115H31.8314L32.1041 22.5931L30.8227 27H30.124V28.8846L27.0219 33.9641H26.9675V23.6H28.2678V21H13.9678V23.6H15.2674V33.9641H5V35H49V33.9641H48.0035L44.2797 24.2311L44.283 24.2262L46.3769 27.5023L48.5026 25.3767L45.2668 23.3461L48.5026 21.1254L46.377 18.9998L44.283 22.4859L42.1256 18.9998L40 21.1254L43.2933 23.3461L40 25.3767L42.1257 27.5024L44.2328 24.3024L41.0149 33.9641H40.9789L37.9917 28.8846V27H37.3784L35.9212 22.5931L36.1938 21.9115H35.5894C34.7242 19.3867 34.5123 13.1711 34.4217 10.4084L34.6944 9.99944H34.4217V9.31781H34.0964V7.1366H33.8237V9.31781H33.4675V9.99944H33.1948L33.4675 10.4084ZM37.9832 33.9641H30.1301C30.338 32.7861 31.3768 30.5 33.9421 30.5C36.5075 30.5 37.6975 32.7861 37.9832 33.9641ZM23.0676 28.1497V33.9641H19.1676V28.1497C19.1676 27.0728 20.0406 26.1997 21.1176 26.1997C22.1945 26.1997 23.0676 27.0728 23.0676 28.1497Z" fill="#1D307B"/>
</g>
<defs>
<clipPath id="clip0_339_663">
<rect width="150" height="40" fill="white"/>
</clipPath>
</defs>
</svg>
